Coordinates
version=1
nRows=11
nColumns=32
inDegrees=yes

Units are S.I. units (second, meters, Newtons, ...)
If the header above contains a line with 'inDegrees', this indicates whether rotational values are in degrees (yes) or radians (no).

endheader
time	pelvis_tilt	pelvis_list	pelvis_rotation	pelvis_tx	pelvis_ty	pelvis_tz	hip_flexion_r	hip_adduction_r	hip_rotation_r	knee_angle_r	knee_adduction_r	med_cond_adduction_r	lat_cond_adduction_r	patella_r_constrained_knee_angle	hip_flexion_l	hip_adduction_l	hip_rotation_l	knee_angle_l	knee_adduction_l	med_cond_adduction_l	lat_cond_adduction_l	patella_l_constrained_knee_angle	lumbar_extension	lumbar_bending	lumbar_rotation	ankle_angle_r	subtalar_angle_r	mtp_angle_r	ankle_angle_l	subtalar_angle_l	mtp_angle_l
      1.21000000	     -8.98354005	     -1.71702172	     -2.62208292	     -0.29926544	      0.86565402	     -0.18415382	     21.37173400	      4.42185817	      0.73379530	    -17.66184968	      2.82805419	     -0.00000000	     -0.00000000	     -0.30825743	     34.58103817	     -6.75403419	      1.50851529	    -64.28563826	      8.33953562	     -0.00000000	     -0.00000000	     -1.12199605	    -10.68362895	      2.30430694	      8.50303818	      6.23434449	      5.96287995	     -0.00000000	     -3.25923656	     14.65241316	      0.00000000
      1.21500000	     -9.00164649	     -1.56757504	     -2.78466071	     -0.29301760	      0.86606725	     -0.18391961	     20.74205997	      4.31540154	      0.69883610	    -17.40375763	      2.73421875	      0.00000000	      0.00000000	     -0.30375287	     35.27671943	     -6.81823766	      1.25112617	    -63.73170216	      8.46193623	      0.00000000	      0.00000000	     -1.11232804	    -10.69514996	      2.13015063	      8.54176711	      6.87395872	      6.64629752	     -0.00000000	     -2.83830211	     14.34289364	      0.00000000
      1.22000000	     -8.96774234	     -1.41534647	     -2.94096570	     -0.28674297	      0.86645188	     -0.18367763	     20.04747584	      4.19995358	      0.61635992	    -17.14910725	      2.61807614	     -0.00000000	     -0.00000000	     -0.29930839	     35.87630385	     -6.86399740	      0.97999874	    -63.09922027	      8.54668608	      0.00000000	      0.00000000	     -1.10128915	    -10.76223633	      1.91094975	      8.57381228	      7.63449048	      7.47712746	      0.00000000	     -2.30737625	     14.15200880	      0.00000000
      1.22500000	     -8.98991383	     -1.24178955	     -3.08459032	     -0.28054292	      0.86670241	     -0.18357567	     19.40848797	      4.03200176	      0.63114292	    -16.84849923	      2.55347230	      0.00000000	      0.00000000	     -0.29406179	     36.52384062	     -6.83751689	      0.77674320	    -62.41160615	      8.63740958	     -0.00000000	     -0.00000000	     -1.08928802	    -10.77590181	      1.72378627	      8.73394959	      7.63054845	      7.72636957	     -0.00000000	     -1.61999456	     14.05219902	     -0.00000000
      1.23000000	     -8.97876353	     -1.13733621	     -3.24109859	     -0.27430047	      0.86694488	     -0.18340417	     18.71172920	      3.97373711	      0.63989751	    -16.51623359	      2.45021799	     -0.00000000	     -0.00000000	     -0.28826266	     37.08390564	     -6.91441620	      0.59077451	    -61.60578882	      8.74317410	     -0.00000000	     -0.00000000	     -1.07522385	    -10.86518560	      1.62549920	      8.78006437	      8.15445607	      8.05004211	     -0.00000000	     -1.16524499	     13.81049747	     -0.00000000
      1.23500000	     -8.92474345	     -1.04226266	     -3.41606884	     -0.26807265	      0.86709889	     -0.18329929	     17.99941792	      3.89008357	      0.70391945	    -16.28826856	      2.40668537	      0.00000000	      0.00000000	     -0.28428392	     37.58539783	     -6.99595295	      0.37566775	    -60.79781675	      8.82212586	      0.00000000	      0.00000000	     -1.06112208	    -10.93737402	      1.55274383	      8.72328991	      8.92093761	      8.52443721	     -0.00000000	     -0.82208744	     13.24379366	      0.00000000
      1.24000000	     -8.94785445	     -0.93274150	     -3.54571027	     -0.26185972	      0.86716537	     -0.18322712	     17.32991480	      3.79923880	      0.81623205	    -15.89403468	      2.35275378	     -0.00000000	     -0.00000000	     -0.27740324	     38.12702842	     -7.00005049	      0.27202249	    -59.84795601	      8.89549023	     -0.00000000	     -0.00000000	     -1.04454388	    -10.98716685	      1.42202733	      8.89270147	      8.62077290	      8.06340878	     -0.00000000	     -0.17465232	     13.37599401	     -0.00000000
      1.24500000	     -8.92279811	     -0.82526848	     -3.66361450	     -0.25569138	      0.86714979	     -0.18327185	     16.70768866	      3.65515438	      0.78359062	    -15.72520128	      2.32478066	      0.00000000	      0.00000000	     -0.27445654	     38.59462622	     -6.97618281	      0.20421375	    -58.84454613	      8.97869135	      0.00000000	      0.00000000	     -1.02703108	    -11.10669730	      1.36333370	      8.81641096	      9.53470101	      8.64906961	      0.00000000	      0.06687488	     12.60987801	      0.00000000
      1.25000000	     -8.99101795	     -0.75946959	     -3.85560644	     -0.24946068	      0.86696097	     -0.18320252	     16.15102913	      3.62395065	      0.99613041	    -15.49531631	      2.25456027	     -0.00000000	     -0.00000000	     -0.27044429	     39.12817526	     -7.05077890	      0.07415272	    -57.80849382	      9.03302753	      0.00000000	      0.00000000	     -1.00894855	    -11.02552564	      1.29976280	      8.95891516	      9.87315851	      9.12192073	     -0.00000000	      0.38431105	     12.30363791	      0.00000000
      1.25500000	     -9.01430422	     -0.68614710	     -4.01839546	     -0.24329287	      0.86681950	     -0.18323241	     15.53985030	      3.53202533	      1.25859039	    -15.19201461	      2.28808492	     -0.00000000	     -0.00000000	     -0.26515068	     39.55740646	     -7.06994636	     -0.02020430	    -56.62102478	      9.05189095	     -0.00000000	     -0.00000000	     -0.98822331	    -11.07810748	      1.28566668	      9.10277533	      9.73238188	      8.81621696	     -0.00000000	      0.73102941	     12.02601963	     -0.00000000
      1.26000000	     -9.03515623	     -0.65364068	     -4.15239372	     -0.23712414	      0.86654210	     -0.18333441	     15.00819272	      3.47549932	      1.32397247	    -15.07416422	      2.25255497	      0.00000000	      0.00000000	     -0.26309380	     39.96871452	     -7.09855673	     -0.02176481	    -55.39954308	      9.09306753	      0.00000000	      0.00000000	     -0.96690443	    -11.12983210	      1.33760546	      9.05371351	     10.42441383	      9.19367764	     -0.00000000	      0.99886066	     11.43674849	     -0.00000000
